<?xml version="1.0" encoding="UTF-8"?>
<svg xmlns="http://www.w3.org/2000/svg" xmlns:xlink="http://www.w3.org/1999/xlink" width="32px" height="px" viewBox="0 0 32 32" version="1.1">
<g id="surface1">
<path style=" stroke:none;fill-rule:nonzero;fill:rgb(0%,0%,0%);fill-opacity:1;" d="M 14.953125 0.0078125 C 14.882812 0.015625 14.664062 0.0351562 14.46875 0.0507812 C 9.921875 0.460938 5.664062 2.914062 2.96875 6.683594 C 1.46875 8.777344 0.507812 11.15625 0.144531 13.671875 C 0.015625 14.550781 0 14.8125 0 16.003906 C 0 17.195312 0.015625 17.453125 0.144531 18.332031 C 1.011719 24.339844 5.289062 29.390625 11.089844 31.257812 C 12.128906 31.59375 13.222656 31.824219 14.46875 31.960938 C 14.953125 32.011719 17.046875 32.011719 17.53125 31.960938 C 19.683594 31.722656 21.503906 31.191406 23.296875 30.273438 C 23.574219 30.132812 23.625 30.097656 23.589844 30.066406 C 23.5625 30.046875 22.390625 28.472656 20.984375 26.570312 L 18.425781 23.117188 L 15.21875 18.371094 C 13.453125 15.761719 12.003906 13.628906 11.988281 13.628906 C 11.976562 13.625 11.964844 15.734375 11.957031 18.308594 C 11.949219 22.816406 11.945312 22.996094 11.890625 23.101562 C 11.808594 23.257812 11.746094 23.320312 11.613281 23.386719 C 11.515625 23.4375 11.425781 23.445312 10.953125 23.445312 L 10.414062 23.445312 L 10.269531 23.355469 C 10.175781 23.296875 10.105469 23.21875 10.058594 23.128906 L 9.992188 22.988281 L 10 16.714844 L 10.011719 10.441406 L 10.105469 10.320312 C 10.15625 10.253906 10.261719 10.171875 10.339844 10.128906 C 10.464844 10.066406 10.515625 10.0625 11.058594 10.0625 C 11.695312 10.0625 11.800781 10.085938 11.96875 10.265625 C 12.015625 10.316406 13.75 12.933594 15.828125 16.082031 C 17.90625 19.230469 20.746094 23.53125 22.140625 25.640625 L 24.675781 29.480469 L 24.800781 29.394531 C 25.9375 28.65625 27.140625 27.605469 28.089844 26.511719 C 30.113281 24.1875 31.417969 21.355469 31.855469 18.332031 C 31.984375 17.453125 32 17.195312 32 16.003906 C 32 14.8125 31.984375 14.550781 31.855469 13.671875 C 30.988281 7.664062 26.710938 2.617188 20.910156 0.746094 C 19.886719 0.414062 18.800781 0.1875 17.578125 0.0507812 C 17.28125 0.0195312 15.210938 -0.015625 14.953125 0.0078125 Z M 21.503906 9.683594 C 21.652344 9.761719 21.773438 9.90625 21.816406 10.054688 C 21.84375 10.136719 21.847656 11.875 21.84375 15.792969 L 21.832031 21.417969 L 20.84375 19.898438 L 19.847656 18.378906 L 19.847656 14.289062 C 19.847656 11.644531 19.859375 10.160156 19.878906 10.089844 C 19.929688 9.914062 20.039062 9.777344 20.1875 9.695312 C 20.316406 9.628906 20.363281 9.621094 20.855469 9.621094 C 21.316406 9.621094 21.398438 9.628906 21.503906 9.683594 Z M 21.503906 9.683594 "/>
</g>
</svg>
