<?xml version="1.0" encoding="UTF-8"?>
<svg xmlns="http://www.w3.org/2000/svg" xmlns:xlink="http://www.w3.org/1999/xlink" width="32px" height="px" viewBox="0 0 32 32" version="1.1">
<g id="surface1">
<path style=" stroke:none;fill-rule:nonzero;fill:rgb(17.647059%,27.058824%,32.156863%);fill-opacity:1;" d="M 10.914062 17.722656 C 9.882812 18.015625 9.207031 18.53125 8.761719 19.042969 C 9.191406 18.667969 9.761719 18.328125 10.53125 18.109375 C 11.320312 17.882812 11.992188 17.886719 12.550781 17.992188 L 12.550781 17.558594 C 12.074219 17.515625 11.53125 17.550781 10.914062 17.722656 Z M 8.714844 14.070312 L 4.886719 15.078125 C 4.886719 15.078125 4.957031 15.175781 5.085938 15.308594 L 8.332031 14.453125 C 8.332031 14.453125 8.285156 15.046875 7.886719 15.578125 C 8.640625 15.003906 8.714844 14.070312 8.714844 14.070312 Z M 11.921875 23.066406 C 6.53125 24.519531 3.683594 18.273438 2.820312 15.035156 C 2.421875 13.539062 2.246094 12.40625 2.199219 11.675781 C 2.195312 11.597656 2.199219 11.535156 2.203125 11.476562 C 1.921875 11.492188 1.789062 11.636719 1.816406 12.058594 C 1.863281 12.789062 2.035156 13.921875 2.4375 15.417969 C 3.296875 18.65625 6.148438 24.902344 11.535156 23.449219 C 12.710938 23.136719 13.589844 22.558594 14.253906 21.824219 C 13.640625 22.375 12.878906 22.808594 11.921875 23.066406 Z M 12.933594 10.25 L 12.933594 10.632812 L 15.046875 10.632812 C 15.003906 10.496094 14.960938 10.375 14.914062 10.25 Z M 12.933594 10.25 "/>
<path style=" stroke:none;fill-rule:nonzero;fill:rgb(17.647059%,27.058824%,32.156863%);fill-opacity:1;" d="M 15.519531 13.40625 C 16.46875 13.675781 16.972656 14.34375 17.238281 14.933594 L 18.296875 15.234375 C 18.296875 15.234375 18.152344 13.167969 16.285156 12.640625 C 14.539062 12.144531 13.464844 13.609375 13.332031 13.800781 C 13.84375 13.4375 14.582031 13.140625 15.519531 13.40625 Z M 23.953125 14.941406 C 22.207031 14.445312 21.132812 15.914062 21.003906 16.101562 C 21.511719 15.738281 22.253906 15.441406 23.1875 15.707031 C 24.136719 15.980469 24.636719 16.644531 24.90625 17.234375 L 25.964844 17.535156 C 25.964844 17.535156 25.820312 15.472656 23.953125 14.941406 Z M 22.902344 20.382812 L 14.085938 17.917969 C 14.085938 17.917969 14.179688 18.402344 14.546875 19.03125 L 21.96875 21.105469 C 22.582031 20.75 22.902344 20.382812 22.902344 20.382812 Z M 16.789062 25.6875 C 9.808594 23.816406 10.652344 14.921875 11.78125 10.710938 C 12.246094 8.972656 12.726562 7.679688 13.121094 6.816406 C 12.886719 6.769531 12.691406 6.890625 12.496094 7.285156 C 12.074219 8.140625 11.535156 9.53125 11.015625 11.476562 C 9.886719 15.691406 9.042969 24.582031 16.023438 26.453125 C 19.3125 27.335938 21.875 25.996094 23.785156 23.894531 C 21.972656 25.535156 19.65625 26.457031 16.789062 25.6875 Z M 16.789062 25.6875 "/>
<path style=" stroke:none;fill-rule:nonzero;fill:rgb(88.627451%,34.117647%,29.803922%);fill-opacity:1;" d="M 12.933594 20.984375 L 12.933594 19.1875 L 7.945312 20.601562 C 7.945312 20.601562 8.316406 18.460938 10.914062 17.722656 C 11.703125 17.5 12.378906 17.503906 12.933594 17.609375 L 12.933594 10.25 L 15.429688 10.25 C 15.15625 9.410156 14.894531 8.761719 14.675781 8.3125 C 14.308594 7.570312 13.933594 8.0625 13.082031 8.773438 C 12.484375 9.273438 10.972656 10.339844 8.695312 10.953125 C 6.414062 11.570312 4.574219 11.40625 3.804688 11.273438 C 2.71875 11.085938 2.148438 10.847656 2.199219 11.675781 C 2.246094 12.40625 2.421875 13.539062 2.820312 15.035156 C 3.683594 18.273438 6.53125 24.519531 11.921875 23.066406 C 13.328125 22.6875 14.320312 21.9375 15.011719 20.984375 Z M 4.886719 15.078125 L 8.714844 14.070312 C 8.714844 14.070312 8.605469 15.542969 7.167969 15.921875 C 5.734375 16.300781 4.886719 15.078125 4.886719 15.078125 Z M 4.886719 15.078125 "/>
<path style=" stroke:none;fill-rule:nonzero;fill:rgb(18.039216%,67.843137%,20%);fill-opacity:1;" d="M 27.34375 10.332031 C 26.347656 10.507812 23.960938 10.726562 21.007812 9.933594 C 18.058594 9.144531 16.097656 7.761719 15.324219 7.113281 C 14.222656 6.191406 13.738281 5.550781 13.261719 6.519531 C 12.84375 7.371094 12.304688 8.761719 11.78125 10.710938 C 10.652344 14.921875 9.808594 23.816406 16.789062 25.6875 C 23.765625 27.558594 27.480469 19.433594 28.613281 15.21875 C 29.132812 13.273438 29.359375 11.800781 29.425781 10.851562 C 29.496094 9.773438 28.757812 10.085938 27.34375 10.332031 Z M 13.320312 13.820312 C 13.320312 13.820312 14.417969 12.109375 16.285156 12.640625 C 18.152344 13.171875 18.296875 15.234375 18.296875 15.234375 Z M 17.875 21.496094 C 14.59375 20.535156 14.085938 17.917969 14.085938 17.917969 L 22.902344 20.382812 C 22.902344 20.382812 21.121094 22.445312 17.875 21.496094 Z M 20.988281 16.121094 C 20.988281 16.121094 22.089844 14.410156 23.953125 14.941406 C 25.820312 15.472656 25.964844 17.535156 25.964844 17.535156 Z M 20.988281 16.121094 "/>
<path style=" stroke:none;fill-rule:nonzero;fill:rgb(83.921569%,32.54902%,28.235294%);fill-opacity:1;" d="M 11.191406 19.683594 L 7.945312 20.601562 C 7.945312 20.601562 8.300781 18.59375 10.6875 17.800781 L 8.851562 10.90625 L 8.691406 10.953125 C 6.414062 11.570312 4.574219 11.40625 3.804688 11.273438 C 2.714844 11.085938 2.148438 10.847656 2.199219 11.675781 C 2.246094 12.40625 2.421875 13.539062 2.820312 15.035156 C 3.683594 18.273438 6.53125 24.519531 11.921875 23.066406 L 12.078125 23.015625 Z M 4.886719 15.078125 L 8.714844 14.070312 C 8.714844 14.070312 8.605469 15.542969 7.167969 15.921875 C 5.734375 16.300781 4.886719 15.078125 4.886719 15.078125 Z M 4.886719 15.078125 "/>
<path style=" stroke:none;fill-rule:nonzero;fill:rgb(11.372549%,55.294118%,13.333333%);fill-opacity:1;" d="M 18.023438 21.53125 L 17.875 21.496094 C 14.59375 20.535156 14.085938 17.917969 14.085938 17.917969 L 18.632812 19.191406 L 21.039062 9.941406 L 21.007812 9.933594 C 18.058594 9.144531 16.097656 7.761719 15.324219 7.113281 C 14.222656 6.191406 13.738281 5.550781 13.261719 6.519531 C 12.84375 7.371094 12.304688 8.761719 11.78125 10.710938 C 10.652344 14.921875 9.808594 23.816406 16.789062 25.6875 L 16.933594 25.71875 Z M 13.320312 13.820312 C 13.320312 13.820312 14.417969 12.109375 16.285156 12.640625 C 18.152344 13.171875 18.296875 15.234375 18.296875 15.234375 Z M 13.320312 13.820312 "/>
<path style=" stroke:none;fill-rule:nonzero;fill:rgb(75.294118%,29.411765%,25.490196%);fill-opacity:1;" d="M 11.355469 19.636719 L 10.484375 19.882812 C 10.691406 21.042969 11.054688 22.152344 11.621094 23.136719 C 11.722656 23.113281 11.820312 23.09375 11.921875 23.066406 C 12.183594 22.996094 12.429688 22.90625 12.664062 22.8125 C 12.03125 21.867188 11.609375 20.78125 11.355469 19.636719 Z M 11.015625 11.476562 C 10.570312 13.144531 10.167969 15.546875 10.277344 17.953125 C 10.476562 17.871094 10.683594 17.789062 10.914062 17.722656 L 11.078125 17.6875 C 10.878906 15.113281 11.304688 12.492188 11.78125 10.710938 C 11.902344 10.257812 12.027344 9.839844 12.148438 9.445312 C 11.953125 9.570312 11.742188 9.699219 11.503906 9.828125 C 11.339844 10.328125 11.179688 10.871094 11.015625 11.476562 Z M 11.015625 11.476562 "/>
</g>
</svg>
