<?xml version="1.0" encoding="UTF-8"?>
<svg xmlns="http://www.w3.org/2000/svg" xmlns:xlink="http://www.w3.org/1999/xlink" width="32px" height="px" viewBox="0 0 32 20" version="1.1">
<defs>
<clipPath id="clip1">
  <path d="M 0 0 L 32 0 L 32 19.636719 L 0 19.636719 Z M 0 0 "/>
</clipPath>
</defs>
<g id="surface1">
<g clip-path="url(#clip1)" clip-rule="nonzero">
<path style=" stroke:none;fill-rule:evenodd;fill:rgb(21.960784%,74.117647%,97.254902%);fill-opacity:1;" d="M 16 0 C 11.734375 0 9.066406 2.183594 8 6.546875 C 9.601562 4.363281 11.464844 3.546875 13.601562 4.089844 C 14.816406 4.402344 15.6875 5.304688 16.648438 6.304688 C 18.21875 7.933594 20.035156 9.816406 24 9.816406 C 28.265625 9.816406 30.933594 7.636719 32 3.273438 C 30.398438 5.453125 28.535156 6.273438 26.398438 5.726562 C 25.183594 5.417969 24.3125 4.511719 23.351562 3.511719 C 21.78125 1.886719 19.964844 0 16 0 Z M 8 9.816406 C 3.734375 9.816406 1.066406 12 0 16.363281 C 1.601562 14.183594 3.464844 13.363281 5.601562 13.910156 C 6.816406 14.21875 7.6875 15.125 8.648438 16.121094 C 10.21875 17.75 12.035156 19.636719 16 19.636719 C 20.265625 19.636719 22.933594 17.453125 24 13.089844 C 22.398438 15.273438 20.535156 16.089844 18.398438 15.546875 C 17.183594 15.234375 16.3125 14.332031 15.351562 13.332031 C 13.78125 11.703125 11.964844 9.816406 8 9.816406 Z M 8 9.816406 "/>
</g>
</g>
</svg>
