<?xml version="1.0" encoding="UTF-8"?>
<svg xmlns="http://www.w3.org/2000/svg" xmlns:xlink="http://www.w3.org/1999/xlink" width="32px" height="px" viewBox="0 0 32 32" version="1.1">
<g id="surface1">
<path style=" stroke:none;fill-rule:nonzero;fill:rgb(0%,0%,0%);fill-opacity:1;" d="M 14.4375 0.0703125 C 11.300781 0.414062 8.351562 1.625 5.96875 3.542969 C 5.164062 4.195312 3.84375 5.550781 3.261719 6.324219 C 1.605469 8.539062 0.550781 11.0625 0.148438 13.78125 C 0.0117188 14.699219 -0.03125 16.457031 0.0546875 17.375 C 0.320312 20.082031 1.179688 22.582031 2.585938 24.710938 C 5.175781 28.644531 9.132812 31.164062 13.78125 31.851562 C 14.699219 31.988281 16.457031 32.03125 17.375 31.945312 C 20.082031 31.679688 22.582031 30.820312 24.710938 29.414062 C 28.644531 26.824219 31.164062 22.867188 31.851562 18.21875 C 31.988281 17.300781 32.03125 15.542969 31.945312 14.625 C 31.625 11.351562 30.457031 8.449219 28.457031 5.96875 C 27.804688 5.164062 26.449219 3.84375 25.675781 3.261719 C 23.460938 1.605469 20.957031 0.5625 18.21875 0.148438 C 17.460938 0.0390625 15.175781 -0.0117188 14.4375 0.0703125 Z M 20.117188 14.742188 C 22.289062 18.539062 24.0625 21.648438 24.0625 21.664062 C 24.0625 21.675781 20.507812 21.6875 16.15625 21.6875 C 11.804688 21.6875 8.25 21.675781 8.25 21.65625 C 8.25 21.605469 16.144531 7.804688 16.164062 7.832031 C 16.167969 7.835938 17.957031 10.949219 20.117188 14.742188 Z M 20.117188 14.742188 "/>
</g>
</svg>
