<?xml version="1.0" encoding="UTF-8"?>
<svg xmlns="http://www.w3.org/2000/svg" xmlns:xlink="http://www.w3.org/1999/xlink" width="32px" height="px" viewBox="0 0 32 32" version="1.1">
<g id="surface1">
<path style=" stroke:none;fill-rule:nonzero;fill:rgb(24.313725%,65.882353%,100%);fill-opacity:1;" d="M 1.414062 30.1875 L 7.574219 30.1875 C 7.898438 30.1875 8.191406 30.007812 8.371094 29.753906 L 25.332031 1.882812 C 25.550781 1.523438 25.296875 1.085938 24.859375 1.085938 L 19.027344 1.085938 C 18.734375 1.085938 18.484375 1.230469 18.335938 1.484375 L 1.125 29.679688 C 1.015625 29.898438 1.160156 30.1875 1.414062 30.1875 Z M 1.414062 30.1875 "/>
<path style=" stroke:none;fill-rule:nonzero;fill:rgb(24.313725%,65.882353%,100%);fill-opacity:1;" d="M 22.648438 29.753906 L 30.660156 16.886719 C 30.914062 16.488281 30.621094 15.980469 30.152344 15.980469 L 24.351562 15.980469 C 24.136719 15.980469 23.917969 16.089844 23.808594 16.273438 L 15.582031 29.425781 C 15.367188 29.753906 15.621094 30.1875 16.019531 30.1875 L 21.925781 30.1875 C 22.214844 30.1875 22.503906 30.042969 22.648438 29.753906 Z M 22.648438 29.753906 "/>
</g>
</svg>
